<svg width="56" height="71" viewBox="0 0 56 71" fill="none" xmlns="http://www.w3.org/2000/svg">
<g clip-path="url(#clip0_256_12)">
<path d="M2.59434 15.9002H14.4099V13.503C14.4099 9.78813 15.9343 6.41134 18.3869 3.96569C20.8395 1.52004 24.2245 0 27.9514 0C31.6768 0 35.0646 1.52004 37.5172 3.96569C39.9698 6.41134 41.4928 9.78813 41.4928 13.503V15.9002H53.4057C54.1213 15.9002 54.7688 16.1953 55.2357 16.6609L55.3622 16.8022C55.7596 17.2595 56 17.8539 56 18.4872V61.7176C56 64.2658 54.9509 66.5881 53.2625 68.2703C51.5756 69.9525 49.2467 71 46.6912 71H9.30739C6.75752 71 4.4272 69.9525 2.73747 68.2675C1.04913 66.5909 0 64.27 0 61.7176V18.4872C0 17.7749 0.293201 17.1251 0.761489 16.6595C1.22839 16.1925 1.8801 15.9002 2.59434 15.9002ZM18.6467 48.5513C17.9117 47.907 17.8408 46.7888 18.4869 46.0558C19.1331 45.3228 20.2545 45.2521 20.9896 45.8964L25.3223 49.7014L34.8909 39.528C35.5607 38.8186 36.6821 38.784 37.3935 39.4518C38.1064 40.1197 38.1411 41.2379 37.4714 41.9487L26.7688 53.3276C26.1227 54.0606 25.0013 54.1313 24.2662 53.4869L18.6467 48.5513ZM17.7116 15.9002H38.1912V13.503C38.1912 10.6971 37.0392 8.14338 35.1827 6.29356C33.3263 4.44235 30.7653 3.29227 27.9514 3.29227C25.1375 3.29227 22.5765 4.44235 20.7214 6.29356C18.8649 8.14338 17.7116 10.6971 17.7116 13.503V15.9002ZM14.4099 22.2866V19.1952H3.30442V61.7176C3.30442 63.361 3.98253 64.8561 5.07057 65.941C6.15583 67.0315 7.65797 67.7036 9.30739 67.7036H46.6912C48.3351 67.7036 49.8372 67.026 50.9266 65.941C52.0161 64.8547 52.6956 63.3568 52.6956 61.7176V19.1952H41.4928V22.3212C42.7184 22.942 43.5577 24.2112 43.5577 25.6758C43.5577 27.7529 41.8694 29.4378 39.785 29.4378C37.702 29.4378 36.0123 27.7529 36.0123 25.6758C36.0123 24.1655 36.9044 22.8644 38.1912 22.2644V19.1952H17.7116V22.299C18.9608 22.9115 19.8209 24.1932 19.8209 25.6758C19.8209 27.7529 18.1326 29.4378 16.0496 29.4378C13.9653 29.4378 12.2769 27.7529 12.2769 25.6758C12.2769 24.1835 13.1468 22.8949 14.4099 22.2866Z" fill="black"/>
</g>
<defs>
<clipPath id="clip0_256_12">
<rect width="56" height="71" fill="white"/>
</clipPath>
</defs>
</svg>
