<svg width="42" height="42" viewBox="0 0 42 42" fill="none" xmlns="http://www.w3.org/2000/svg">
<path d="M37.6178 36.9714C37.6629 37.3723 37.6224 37.778 37.4992 38.1623C37.3761 38.5463 37.1732 38.9 36.9035 39.2C36.6332 39.4994 36.3024 39.7386 35.9332 39.9009C35.5638 40.0634 35.1641 40.146 34.7607 40.1429H6.87498C6.47146 40.146 6.07189 40.0634 5.70255 39.9009C5.3332 39.7386 5.00246 39.4994 4.73212 39.2C4.46249 38.9 4.25946 38.5463 4.13635 38.1623C4.01323 37.778 3.97283 37.3723 4.01783 36.9714L6.53212 14.4286H35.1035L37.6178 36.9714Z" stroke="white" stroke-width="3" stroke-linecap="round" stroke-linejoin="round"/>
<path d="M13.6748 14.4286V10.1429C13.6748 8.24846 14.4273 6.43163 15.7669 5.09209C17.1064 3.75255 18.9233 3 20.8177 3C22.7121 3 24.5289 3.75255 25.8684 5.09209C27.208 6.43163 27.9605 8.24846 27.9605 10.1429V14.4286" stroke="white" stroke-width="3" stroke-linecap="round" stroke-linejoin="round"/>
</svg>
