<svg width="38" height="42" viewBox="0 0 38 42" fill="none" xmlns="http://www.w3.org/2000/svg">
<path d="M36.998 39.9323C36.5395 32.5038 31.331 26.3233 24.2884 24.2231C28.5541 22.2832 31.5165 18.0677 31.5165 13.1805C31.5165 6.45363 25.9112 1 18.9974 1C12.0836 1 6.47839 6.45363 6.47839 13.1805C6.47839 18.0677 9.44071 22.2832 13.7116 24.2231C6.669 26.3233 1.46047 32.5038 1.00195 39.9323C0.965886 40.5088 1.43471 41 2.03232 41C2.57327 41 3.02663 40.589 3.0627 40.0627C3.55212 31.9173 10.502 25.4612 18.9974 25.4612C27.4929 25.4612 34.4427 31.9173 34.9373 40.0627C34.9682 40.589 35.4216 41 35.9677 41C36.5653 41 37.0341 40.5088 36.998 39.9323ZM8.53913 13.1805C8.53913 7.5614 13.2222 3.00501 18.9974 3.00501C24.7727 3.00501 29.4557 7.5614 29.4557 13.1805C29.4557 18.7995 24.7727 23.3559 18.9974 23.3559C13.2222 23.3559 8.53913 18.7995 8.53913 13.1805Z" fill="white" stroke="white" stroke-width="1.7"/>
</svg>
