<svg width="42" height="42" viewBox="0 0 42 42" fill="none" xmlns="http://www.w3.org/2000/svg">
<path fill-rule="evenodd" clip-rule="evenodd" d="M21.3175 1C16.3162 1 12.2617 5.05446 12.2617 10.0559C12.2617 15.0573 16.3162 19.1118 21.3175 19.1118C26.3191 19.1118 30.3734 15.0573 30.3734 10.0559C30.3734 5.05446 26.3191 1 21.3175 1ZM15.1215 10.0559C15.1215 6.63384 17.8956 3.85975 21.3175 3.85975C24.7397 3.85975 27.5137 6.63384 27.5137 10.0559C27.5137 13.4779 24.7397 16.252 21.3175 16.252C17.8956 16.252 15.1215 13.4779 15.1215 10.0559Z" fill="white"/>
<path fill-rule="evenodd" clip-rule="evenodd" d="M21.3178 21.9716C16.9071 21.9716 12.8433 22.9742 9.83206 24.6679C6.86562 26.3367 4.63599 28.8657 4.63599 31.9807L4.63587 32.1751C4.63372 34.3901 4.63101 37.1702 7.06948 39.1558C8.26957 40.1331 9.94841 40.828 12.2166 41.2873C14.4912 41.7475 17.4557 41.9898 21.3178 41.9898C25.18 41.9898 28.1446 41.7475 30.4191 41.2873C32.6874 40.828 34.3663 40.1331 35.5662 39.1558C38.0046 37.1702 38.002 34.3901 37.9999 32.1751L37.9997 31.9807C37.9997 28.8657 35.7702 26.3367 32.8037 24.6679C29.7924 22.9742 25.7287 21.9716 21.3178 21.9716ZM7.49574 31.9807C7.49574 30.3577 8.6804 28.5968 11.2341 27.1605C13.743 25.7493 17.3052 24.8313 21.3178 24.8313C25.3306 24.8313 28.8927 25.7493 31.4017 27.1605C33.9554 28.5968 35.1399 30.3577 35.1399 31.9807C35.1399 34.474 35.0631 35.8776 33.7604 36.9384C33.054 37.5137 31.8731 38.0752 29.8517 38.4843C27.8367 38.8921 25.0818 39.1301 21.3178 39.1301C17.554 39.1301 14.799 38.8921 12.784 38.4843C10.7626 38.0752 9.58168 37.5137 8.87526 36.9384C7.57261 35.8776 7.49574 34.474 7.49574 31.9807Z" fill="white"/>
</svg>
